<svg width="32" height="32" viewBox="0 0 32 32" fill="none" xmlns="http://www.w3.org/2000/svg">
<path d="M28 9.65891C25.63 8.10891 23.4 9.16891 21.86 10.2089H21.85C21.32 8.41891 20.61 7.01891 19.66 5.93891C18.88 5.04891 17.79 4.38891 16.68 4.13891C14.13 3.54891 11.19 4.87891 9.53 7.35891C9.05 8.07891 8.68 8.86891 8.31 9.64891C8.22 9.82891 8.14 10.0189 8.05 10.1989C7.33 11.6889 6.58 13.3389 5.75 15.2189C4.14 18.8689 2.46 22.7689 1.16 26.7489L1 27.2389H5.28L5.33 27.0989C6.02 25.0289 6.87 22.9789 7.7 20.9889L7.79 20.7689C9.13 17.5489 10.48 14.5289 11.81 11.7989L11.99 11.4189C12.29 10.7989 12.6 10.1489 12.99 9.53891C13.06 9.46891 13.16 9.34891 13.32 9.15891L13.35 9.12891C13.72 8.74891 14.07 8.47891 14.44 8.30891C14.82 8.12891 15.15 8.03891 15.47 8.06891C15.68 8.07891 15.7 8.08891 15.83 8.13891C15.85 8.13891 15.89 8.15891 15.96 8.17891H15.97L16.09 8.24891C16.14 8.27891 16.2 8.30891 16.25 8.32891C16.27 8.32891 16.29 8.34891 16.31 8.36891L16.35 8.39891C16.43 8.47891 16.51 8.55891 16.59 8.63891C16.64 8.68891 16.69 8.73891 16.74 8.77891C16.77 8.83891 16.81 8.88891 16.85 8.93891C16.9 9.00891 16.96 9.08891 16.98 9.11891C17.42 9.80891 17.56 10.1689 17.8 10.8789C18.02 11.5489 18.21 12.2989 18.38 13.1489C16.73 14.6989 15.41 16.1689 14.37 17.6389C12.93 19.6689 11.49 22.6789 12.81 25.5289C13.03 25.9889 13.33 26.4289 13.7 26.8389H13.67L14.04 27.1789L14.1 27.2389C14.75 27.8189 15.5 28.2489 16.28 28.4789C16.62 28.5789 17.01 28.6289 17.41 28.6289C18.37 28.6289 19.43 28.3589 20.21 27.8689C20.49 27.6889 20.76 27.4789 21.01 27.2489L21.07 27.1889L21.42 26.8489H21.36C22.93 24.9889 23.13 22.0889 23.13 19.9989C23.13 18.2889 23 16.4889 22.75 14.6589C23.34 14.1289 23.85 13.7289 24.33 13.4089C24.66 13.1889 25.08 12.9489 25.5 13.0089C25.84 13.0589 25.89 13.1389 26.01 13.4289C26.07 13.5789 26.12 13.9389 26.13 14.3689C26.15 14.9089 26.12 15.4589 26.09 15.9989L26.07 16.3389C25.91 19.7389 25.61 23.0689 25.18 26.2489C25.14 26.5289 25.15 26.8189 25.19 27.0889L25.22 27.2589H29.14L29.16 27.0889C29.64 23.5089 29.96 20.2389 30.12 17.0789L30.14 16.7789C30.27 14.3289 30.44 11.2889 28 9.68891M19.71 20.8789C19.69 21.3489 19.65 21.8189 19.6 22.2889L19.58 22.4689C19.58 22.4689 19.58 22.5189 19.58 22.5389H19.57C19.53 22.7689 19.49 22.9889 19.45 23.2189C19.36 23.6589 19.26 24.0489 19.15 24.3989C19.13 24.4589 19.11 24.5189 19.08 24.5889C19.04 24.6989 19 24.7989 18.97 24.9389L18.95 24.9689C18.9 25.0489 18.85 25.1289 18.8 25.2089C18.7 25.3689 18.6 25.5289 18.52 25.6989L18.5 25.7189L18.48 25.7389C18.43 25.7689 18.38 25.8089 18.33 25.8589H18.31V25.8789H18.29C18.29 25.8789 18.2 25.9089 18.16 25.9189H18.13C17.95 25.9689 17.77 26.0189 17.62 26.0789L17.26 26.0989H17.03C16.97 26.0589 16.91 26.0289 16.85 25.9989C16.79 25.9689 16.74 25.9289 16.69 25.8989C16.63 25.8589 16.58 25.8289 16.49 25.7789C16.4 25.6789 16.29 25.5889 16.19 25.4889L16.06 25.3589C15.99 25.2289 15.89 25.0889 15.81 24.9689L15.75 24.8789C15.75 24.8789 15.75 24.8389 15.74 24.8189C15.73 24.7489 15.71 24.6689 15.69 24.5989C15.69 24.5289 15.69 24.4589 15.68 24.4189C15.66 24.2989 15.62 24.0489 15.62 23.9189C15.62 23.8589 15.62 23.8089 15.62 23.7489C15.62 23.6989 15.62 23.6389 15.63 23.5889C15.68 23.4189 15.72 23.2489 15.76 23.0789C15.79 22.9289 15.82 22.7789 15.87 22.6289C15.91 22.5089 15.95 22.3789 16 22.2589L16.11 21.9389C16.11 21.9389 16.14 21.8789 16.17 21.8289C16.37 21.4289 16.64 20.8889 16.95 20.3789C17.71 19.1289 18.38 18.2589 19.17 17.3489C19.33 17.1689 19.49 16.9889 19.66 16.8089C19.74 18.2589 19.75 19.5989 19.68 20.8889" fill="#111111"/>
</svg>
