<svg width="160" height="27" viewBox="0 0 160 27" fill="none" xmlns="http://www.w3.org/2000/svg">
<g clip-path="url(#clip0_472_4487)">
<path d="M4.76 10.63C5.41 9.21 6.23 8.18 7.22 7.53C8.21 6.89 9.38 6.57 10.75 6.57C12.72 6.57 14.24 7.18 15.29 8.39C16.34 9.61 16.87 11.38 16.87 13.72V25.52H12.06V15.1C12.06 11.83 10.95 10.2 8.74 10.2C7.57 10.2 6.63 10.7 5.91 11.71C5.19 12.71 4.84 14 4.84 15.57V25.53H0V0H4.83V6.97C4.83 8.22 4.78 9.44 4.69 10.63H4.76Z" fill="#111111"/>
<path d="M25.8098 25.8696C24.0098 25.8696 22.6098 25.3796 21.5998 24.3996C20.5898 23.4196 20.0898 22.0396 20.0898 20.2596C20.0898 18.3296 20.7198 16.8696 21.9698 15.8596C23.2298 14.8496 25.0498 14.3396 27.4298 14.3096L31.4398 14.2396V13.2896C31.4398 12.0696 31.2298 11.1696 30.7998 10.5796C30.3798 9.98957 29.6798 9.68957 28.7198 9.68957C27.8298 9.68957 27.1698 9.88957 26.7498 10.2996C26.3298 10.7096 26.0698 11.3796 25.9698 12.3196L20.9298 12.0796C21.2398 10.2696 22.0698 8.89957 23.4198 7.95957C24.7698 7.02957 26.5998 6.55957 28.9298 6.55957C31.2598 6.55957 33.0898 7.13957 34.3698 8.29957C35.6398 9.45957 36.2798 11.0996 36.2798 13.2396V20.0196C36.2798 21.0596 36.3998 21.7796 36.6298 22.1796C36.8598 22.5796 37.2598 22.7696 37.8098 22.7696C38.1798 22.7696 38.5298 22.7396 38.8798 22.6696V25.2796C38.5898 25.3496 38.3398 25.4096 38.1098 25.4696C37.8798 25.5296 37.6498 25.5696 37.4198 25.6096C37.1898 25.6396 36.9498 25.6696 36.6898 25.6996C36.4298 25.7196 36.1298 25.7296 35.7898 25.7296C34.5698 25.7296 33.6798 25.4296 33.0998 24.8396C32.5198 24.2396 32.1698 23.3696 32.0598 22.2096H31.9598C30.6098 24.6496 28.5698 25.8696 25.8398 25.8696M31.4598 16.9096L28.9798 16.9396C27.8598 16.9896 27.0598 17.1096 26.5898 17.3096C26.1198 17.5096 25.7598 17.8196 25.5198 18.2296C25.2698 18.6396 25.1498 19.1896 25.1498 19.8796C25.1498 20.7596 25.3498 21.4196 25.7598 21.8496C26.1698 22.2796 26.7098 22.4996 27.3898 22.4996C28.1498 22.4996 28.8398 22.2896 29.4598 21.8796C30.0798 21.4696 30.5798 20.8996 30.9298 20.1696C31.2798 19.4396 31.4598 18.6696 31.4598 17.8596V16.9096Z" fill="#111111"/>
<path d="M41.0996 0H45.9296V3.56H41.0996V0ZM41.0996 6.91H45.9296V25.52H41.0996V6.91Z" fill="#111111"/>
<path d="M50.8898 25.52V11.28C50.8898 10.26 50.8798 9.41004 50.8498 8.73004C50.8198 8.05004 50.7898 7.44004 50.7598 6.91004H55.3698C55.3998 7.12004 55.4498 7.74004 55.5098 8.79004C55.5698 9.84004 55.5998 10.54 55.5998 10.88H55.6698C56.1398 9.57004 56.5598 8.65004 56.9198 8.12004C57.2898 7.59004 57.7198 7.19004 58.2298 6.93004C58.7298 6.67004 59.3698 6.54004 60.1198 6.54004C60.7398 6.54004 61.2398 6.63004 61.6198 6.80004V10.84C60.8398 10.67 60.1498 10.58 59.5598 10.58C58.3598 10.58 57.4198 11.07 56.7498 12.04C56.0798 13.01 55.7398 14.46 55.7398 16.37V25.5H50.9098L50.8898 25.52Z" fill="#111111"/>
<path d="M96.97 25.7104C95.17 25.7104 93.77 25.2204 92.76 24.2404C91.75 23.2604 91.25 21.8804 91.25 20.1004C91.25 18.1704 91.88 16.7104 93.13 15.7004C94.39 14.6904 96.21 14.1804 98.59 14.1504L102.6 14.0804V13.1304C102.6 11.9104 102.39 11.0104 101.96 10.4204C101.54 9.83039 100.84 9.53039 99.88 9.53039C98.99 9.53039 98.33 9.73039 97.91 10.1404C97.49 10.5504 97.23 11.2204 97.13 12.1604L92.09 11.9204C92.4 10.1104 93.23 8.74039 94.58 7.80039C95.93 6.87039 97.76 6.40039 100.09 6.40039C102.42 6.40039 104.25 6.98039 105.53 8.14039C106.8 9.30039 107.44 10.9404 107.44 13.0804V19.8604C107.44 20.9004 107.56 21.6204 107.79 22.0204C108.02 22.4204 108.42 22.6104 108.97 22.6104C109.34 22.6104 109.69 22.5804 110.04 22.5104V25.1204C109.75 25.1904 109.5 25.2504 109.27 25.3104C109.04 25.3704 108.81 25.4104 108.58 25.4504C108.35 25.4804 108.11 25.5104 107.85 25.5404C107.59 25.5604 107.29 25.5704 106.95 25.5704C105.73 25.5704 104.84 25.2704 104.26 24.6804C103.68 24.0804 103.33 23.2104 103.22 22.0504H103.12C101.77 24.4904 99.73 25.7104 97 25.7104M102.62 16.7504L100.14 16.7804C99.02 16.8304 98.22 16.9504 97.75 17.1504C97.28 17.3504 96.92 17.6604 96.68 18.0704C96.43 18.4804 96.31 19.0304 96.31 19.7204C96.31 20.6004 96.51 21.2604 96.92 21.6904C97.33 22.1204 97.87 22.3404 98.55 22.3404C99.31 22.3404 100 22.1304 100.62 21.7204C101.24 21.3104 101.74 20.7404 102.09 20.0104C102.44 19.2804 102.62 18.5104 102.62 17.7004V16.7504Z" fill="#111111"/>
<path d="M117.02 25.6699C115.6 25.6699 114.5 25.2799 113.74 24.5099C112.97 23.7399 112.59 22.5599 112.59 20.9899V10.0199H110.23V6.74988H112.83L114.34 2.37988H117.37V6.75988H120.89V10.0299H117.37V19.6999C117.37 20.6099 117.54 21.2699 117.89 21.6999C118.23 22.1299 118.77 22.3499 119.49 22.3499C119.87 22.3499 120.41 22.2699 121.11 22.1099V25.0999C119.92 25.4899 118.56 25.6899 117.03 25.6899" fill="#111111"/>
<path d="M131.6 25.7104C128.8 25.7104 126.65 24.8804 125.15 23.2204C123.65 21.5604 122.9 19.1504 122.9 15.9704C122.9 12.7904 123.66 10.5404 125.19 8.88039C126.71 7.23039 128.88 6.40039 131.67 6.40039C134.46 6.40039 136.38 7.29039 137.79 9.06039C139.2 10.8304 139.91 13.4304 139.91 16.8404V16.9804H127.97C127.97 18.7904 128.3 20.1604 128.98 21.0804C129.65 22.0004 130.61 22.4604 131.84 22.4604C133.55 22.4604 134.63 21.7204 135.07 20.2404L139.63 20.6404C138.31 24.0104 135.63 25.7004 131.6 25.7004M131.6 9.45039C130.46 9.45039 129.59 9.85039 128.98 10.6404C128.37 11.4304 128.04 12.5404 128.01 13.9604H135.23C135.14 12.4604 134.78 11.3304 134.15 10.5804C133.52 9.83039 132.67 9.45039 131.61 9.45039" fill="#111111"/>
<path d="M159.259 19.9299C159.259 21.7299 158.519 23.1399 157.049 24.1699C155.579 25.1999 153.539 25.7099 150.939 25.7099C148.339 25.7099 146.429 25.3099 145.069 24.4999C143.709 23.6899 142.809 22.4299 142.359 20.7299L146.609 20.0899C146.849 20.9699 147.269 21.5999 147.859 21.9599C148.449 22.3299 149.479 22.5099 150.949 22.5099C152.299 22.5099 153.289 22.3399 153.909 21.9899C154.529 21.6499 154.839 21.1099 154.839 20.3699C154.839 19.7699 154.589 19.2999 154.089 18.9499C153.589 18.5999 152.749 18.2999 151.549 18.0599C148.819 17.5199 146.979 17.0199 146.029 16.5599C145.079 16.0899 144.349 15.4899 143.849 14.7499C143.349 14.0099 143.099 13.0999 143.099 12.0199C143.099 10.2399 143.789 8.85988 145.159 7.86988C146.529 6.87988 148.469 6.37988 150.979 6.37988C153.189 6.37988 154.969 6.80988 156.319 7.66988C157.669 8.52988 158.509 9.76988 158.839 11.3999L154.559 11.8499C154.419 11.0899 154.079 10.5299 153.549 10.1599C153.019 9.78988 152.159 9.59988 150.989 9.59988C149.819 9.59988 148.979 9.74988 148.409 10.0399C147.839 10.3299 147.549 10.8199 147.549 11.5099C147.549 12.0499 147.769 12.4799 148.209 12.7899C148.649 13.1099 149.389 13.3699 150.439 13.5699C151.899 13.8699 153.189 14.1699 154.319 14.4899C155.449 14.8099 156.349 15.1799 157.039 15.6199C157.719 16.0599 158.269 16.6099 158.669 17.2999C159.079 17.9799 159.279 18.8599 159.279 19.9199" fill="#111111"/>
<path d="M86.7695 8.04953C84.3995 6.49953 82.1695 7.55953 80.6295 8.59953H80.6195C80.0895 6.80953 79.3795 5.40953 78.4295 4.32953C77.6495 3.43953 76.5595 2.77953 75.4495 2.52953C72.8995 1.93953 69.9595 3.26953 68.2995 5.74953C67.8195 6.46953 67.4495 7.25953 67.0795 8.03953C66.9895 8.21953 66.9095 8.40953 66.8195 8.58953C66.0995 10.0795 65.3495 11.7295 64.5195 13.6095C62.9095 17.2595 61.2295 21.1595 59.9295 25.1395L59.7695 25.6295H64.0495L64.0995 25.4895C64.7895 23.4195 65.6395 21.3695 66.4695 19.3795L66.5595 19.1595C67.8995 15.9395 69.2495 12.9195 70.5795 10.1895L70.7595 9.80953C71.0595 9.18953 71.3695 8.53953 71.7595 7.92953C71.8295 7.85953 71.9295 7.73953 72.0895 7.54953L72.1195 7.51953C72.4895 7.13953 72.8395 6.86953 73.2095 6.69953C73.5895 6.51953 73.9195 6.42953 74.2395 6.45953C74.4495 6.46953 74.4695 6.47953 74.5995 6.52953C74.6195 6.52953 74.6595 6.54953 74.7295 6.56953H74.7395L74.8595 6.63953C74.9095 6.66953 74.9695 6.69953 75.0195 6.71953C75.0395 6.71953 75.0595 6.73953 75.0795 6.75953L75.1195 6.78953C75.1995 6.86953 75.2795 6.94953 75.3595 7.02953C75.4095 7.07953 75.4595 7.12953 75.5095 7.16953C75.5395 7.22953 75.5795 7.27953 75.6195 7.32953C75.6695 7.39953 75.7295 7.47953 75.7495 7.50953C76.1895 8.19953 76.3295 8.55953 76.5695 9.26953C76.7895 9.93953 76.9795 10.6895 77.1495 11.5395C75.4995 13.0895 74.1795 14.5595 73.1395 16.0295C71.6995 18.0595 70.2595 21.0695 71.5795 23.9195C71.7995 24.3795 72.0995 24.8195 72.4695 25.2295H72.4395L72.8095 25.5695L72.8695 25.6295C73.5195 26.2095 74.2695 26.6395 75.0495 26.8695C75.3895 26.9695 75.7795 27.0195 76.1795 27.0195C77.1395 27.0195 78.1995 26.7495 78.9795 26.2595C79.2595 26.0795 79.5295 25.8695 79.7795 25.6395L79.8395 25.5795L80.1895 25.2395H80.1295C81.6995 23.3795 81.8995 20.4795 81.8995 18.3895C81.8995 16.6795 81.7695 14.8795 81.5195 13.0495C82.1095 12.5195 82.6195 12.1195 83.0995 11.7995C83.4295 11.5795 83.8495 11.3395 84.2695 11.3995C84.6095 11.4495 84.6595 11.5295 84.7795 11.8195C84.8395 11.9695 84.8895 12.3295 84.8995 12.7595C84.9195 13.2995 84.8895 13.8495 84.8595 14.3895L84.8395 14.7295C84.6795 18.1295 84.3795 21.4595 83.9495 24.6395C83.9095 24.9195 83.9195 25.2095 83.9595 25.4795L83.9895 25.6495H87.9095L87.9295 25.4795C88.4095 21.8995 88.7295 18.6295 88.8895 15.4695L88.9095 15.1695C89.0395 12.7195 89.2095 9.67953 86.7695 8.07953M78.4795 19.2695C78.4595 19.7395 78.4195 20.2095 78.3695 20.6795L78.3495 20.8595C78.3495 20.8595 78.3495 20.9095 78.3495 20.9295H78.3395C78.2995 21.1595 78.2595 21.3795 78.2195 21.6095C78.1295 22.0495 78.0295 22.4395 77.9195 22.7895C77.8995 22.8495 77.8795 22.9095 77.8495 22.9795C77.8095 23.0895 77.7695 23.1895 77.7395 23.3295L77.7195 23.3595C77.6695 23.4395 77.6195 23.5195 77.5695 23.5995C77.4695 23.7595 77.3695 23.9195 77.2895 24.0895L77.2695 24.1095L77.2495 24.1295C77.1995 24.1595 77.1495 24.1995 77.0995 24.2495H77.0795V24.2695H77.0595C77.0595 24.2695 76.9695 24.2995 76.9295 24.3095H76.8995C76.7195 24.3595 76.5395 24.4095 76.3895 24.4695L76.0295 24.4895H75.7995C75.7395 24.4495 75.6795 24.4195 75.6195 24.3895C75.5595 24.3595 75.5095 24.3195 75.4595 24.2895C75.3995 24.2495 75.3495 24.2195 75.2595 24.1695C75.1695 24.0695 75.0595 23.9795 74.9595 23.8795L74.8295 23.7495C74.7595 23.6195 74.6595 23.4795 74.5795 23.3595L74.5195 23.2695C74.5195 23.2695 74.5195 23.2295 74.5095 23.2095C74.4995 23.1395 74.4795 23.0595 74.4595 22.9895C74.4595 22.9195 74.4595 22.8495 74.4495 22.8095C74.4295 22.6895 74.3895 22.4395 74.3895 22.3095C74.3895 22.2495 74.3895 22.1995 74.3895 22.1395C74.3895 22.0895 74.3895 22.0295 74.3995 21.9795C74.4495 21.8095 74.4895 21.6395 74.5295 21.4695C74.5595 21.3195 74.5895 21.1695 74.6395 21.0195C74.6795 20.8995 74.7195 20.7695 74.7695 20.6495L74.8795 20.3295C74.8795 20.3295 74.9095 20.2695 74.9395 20.2195C75.1395 19.8195 75.4095 19.2795 75.7195 18.7695C76.4795 17.5195 77.1495 16.6495 77.9395 15.7395C78.0995 15.5595 78.2595 15.3795 78.4295 15.1995C78.5095 16.6495 78.5195 17.9895 78.4495 19.2795" fill="#111111"/>
</g>
<defs>
<clipPath id="clip0_472_4487">
<rect width="159.26" height="27" fill="white"/>
</clipPath>
</defs>
</svg>
